<?xml version="1.0" encoding="utf-8"?>
<!-- Generator: Adobe Illustrator 15.0.2, SVG Export Plug-In . SVG Version: 6.00 Build 0)  -->
<!DOCTYPE svg PUBLIC "-//W3C//DTD SVG 1.1//EN" "http://www.w3.org/Graphics/SVG/1.1/DTD/svg11.dtd">
<svg version="1.1" id="Calque_1" xmlns="http://www.w3.org/2000/svg" xmlns:xlink="http://www.w3.org/1999/xlink" x="0px" y="0px"
	 width="120px" height="120px" viewBox="0 0 120 120" enable-background="new 0 0 120 120" xml:space="preserve">
<g id="g968" transform="translate(74.08,24.66)">
	<path id="path970_1_" d="M-52.864,13.178h4.977V-3.008h16.263v-4.978h-16.263l0,0h-4.977l0,0"/>
</g>
<g id="g980" transform="translate(38.34,52.75)">
	<path id="path982" d="M22.772,16.453c-6.89,0-12.953-4.555-16.486-11.451h32.96C35.714,11.899,29.664,16.453,22.772,16.453
		 M21.642-25.25C8.874-25.25-1.467-14.836-1.467-1.979c0,12.86,10.341,23.276,23.109,23.276c12.771,0,23.118-10.416,23.118-23.276
		C44.763-14.836,34.414-25.25,21.642-25.25"/>
</g>
<g id="g984" transform="translate(49.34,46.05)">
	<path id="path986" d="M25.603,41.138c-4.455,2.391-9.547,3.752-14.95,3.752c-5.4,0-10.488-1.361-14.95-3.752
		c-9.625,2.529-17.163,8.524-20.625,21.412h71.163C42.778,49.659,35.239,43.664,25.603,41.138"/>
</g>
<g id="g968_1_" transform="translate(74.08,24.66)">
	<path id="path970_2_" d="M3.516-8.024v4.977h16.186v16.264h4.977V-3.047l0,0v-4.977l0,0"/>
</g>
<g id="g968_2_" transform="translate(74.08,24.66)">
	<path id="path970_3_" d="M24.697,36.046H19.72v16.187L3.457,52.231v4.979h16.264l0,0h4.977l0,0"/>
</g>
<g id="g968_3_" transform="translate(74.08,24.66)">
	<path id="path970_4_" d="M-31.682,57.247V52.27h-16.186l0.001-16.264h-4.978V52.27l0,0v4.978l0,0"/>
</g>
</svg>
