<svg xmlns="http://www.w3.org/2000/svg" xmlns:xlink="http://www.w3.org/1999/xlink" version="1.1" id="Layer_1" x="0px" y="0px" width="100px" height="100px" viewBox="0 0 100 100" enable-background="new 0 0 100 100" xml:space="preserve">
<g>
	<polygon fill="#000000" points="80.577,9.791 80.577,19.185 85.107,19.185 85.107,5.259 72.472,5.259 72.472,9.791  "/>
	<polygon fill="#000000" points="20.043,9.791 28.146,9.791 28.146,5.259 15.512,5.259 15.512,19.185 20.043,19.185  "/>
	<polygon fill="#000000" points="20.043,67.491 20.043,58.614 15.512,58.614 15.512,72.023 28.146,72.023 28.146,67.491  "/>
	<polygon fill="#000000" points="80.577,67.491 72.472,67.491 72.472,72.023 85.107,72.023 85.107,58.614 80.577,58.614  "/>
</g>
<g id="user-13-icon">
	<path fill="#000000" d="M85.075,82.102c-13.551-3.124-26.168-5.862-20.059-17.381c18.597-35.06,4.931-53.809-14.707-53.809   c-20.025,0-33.355,19.468-14.708,53.809c6.293,11.588-6.796,14.321-20.057,17.381C1.998,85.226,3.041,83.466,3.041,96.425h94.538   C97.578,83.466,98.621,85.226,85.075,82.102z"/>
</g>
</svg>